<?xml version="1.0" encoding="utf-8" ?>
<svg baseProfile="full" height="200mm" version="1.1" viewBox="0,0,200,200" width="200mm" xmlns="http://www.w3.org/2000/svg" xmlns:ev="http://www.w3.org/2001/xml-events" xmlns:xlink="http://www.w3.org/1999/xlink"><defs /><rect fill="#1a1a1a" height="200" width="200" x="0" y="0" /><text alignment-baseline="middle" fill="#e1ed5e" style="dominant-baseline: central; font-size:9.0px; font-family:Arial;" text-anchor="middle" x="100.0" y="100.0">2025</text><line stroke="#e1ed5e" stroke-width="0.3" x1="100.0" x2="100.0" y1="15.0" y2="10.0" /><path d="M 100.0 14.0 a86.0,86.0 0 0,1 42.46469731375804,11.215312516191453" fill="none" id="id25" stroke="none" /><text fill="#e1ed5e" style="font-size:6.75px; font-family:Arial;" text-anchor="middle"><textPath startOffset="22.20632615414155" xlink:href="#id25">January</textPath></text><path d="M 108.09893153111575 80.62456947434976 l 5.07369393897278 -12.13802142236864 a34.15575669569216,34.15575669569216 0 0,0 0.5405006054733665,0.23141415168814994 l -5.2818783022364615 12.0488877427177" fill="#ffa50f" stroke="none" /><line stroke="#e1ed5e" stroke-width="0.3" x1="143.23703022742887" x2="145.7803849466894" y1="26.81831364943548" y2="22.513508569990506" /><path d="M 143.74570117128098 25.957352633546492 a86.0,86.0 0 0,1 28.547481713284135,27.462654790039103" fill="none" id="id26" stroke="none" /><text fill="#e1ed5e" style="font-size:6.75px; font-family:Arial;" text-anchor="middle"><textPath startOffset="19.985693538727396" xlink:href="#id26">February</textPath></text><path d="M 112.19680574252982 82.90503203632743 l 7.628338251234714 -10.691832006981452 a34.13418502004459,34.13418502004459 0 0,0 0.4753667753123041,0.3453741786651557 l -7.811250342900807 10.55893859349962" fill="#ffa40f" stroke="none" /><path d="M 113.89432698308785 84.25364557470405 l 9.550795792623886 -10.823857519499558 a35.43515125916002,35.43515125916002 0 0,0 0.4538888734089602,0.4075059120712908 l -9.735695653628834 10.657852598658971" fill="#ffb510" stroke="none" /><path d="M 114.16331599549186 84.49514656593476 l 0.9442636695816649 -1.033703534160814 a22.400063167942214,22.400063167942214 0 0,0 0.2824457204461203,0.2625025151080447 l -0.9619172738226319 1.0172964329781289" fill="#ff0100" stroke="none" /><path d="M 114.94478906791727 85.2469230424477 l 18.695945765904465 -18.456113728010735 a47.271020574444904,47.271020574444904 0 0,0 0.5666573890387319,0.5839902499951476 l -19.010867418646306 18.131559282465467" fill="#b8ff1f" stroke="none" /><path d="M 116.15771136456269 86.58626213691792 l 10.10499055946081 -8.388916685986045 a34.133345246783364,34.133345246783364 0 0,0 0.3714057552079305,0.45529954037410025 l -10.24789480674515 8.213732976003843" fill="#ffa40f" stroke="none" /><path d="M 116.38621287248628 86.86637796730983 l 10.653077899944845 -8.538489015824146 a34.652613794275545,34.652613794275545 0 0,0 0.36904360342109704,0.4686478993801008 l -10.798475583959908 8.353848722491007" fill="#ffab0f" stroke="none" /><path d="M 116.60985879189232 87.15038557335679 l 20.91334937858771 -16.17885373087599 a47.44094344526978,47.44094344526978 0 0,0 0.4941178928546547,0.6502012271483587 l -21.188743211666477 15.816467727846598" fill="#b6ff1f" stroke="none" /><path d="M 117.45458315368197 88.32363383020206 l 22.360549141836024 -14.958246624340767 a47.90247758105312,47.90247758105312 0 0,0 0.4525720346082147,0.6892982578908905 l -22.614717811802166 14.571130302472202" fill="#b1ff20" stroke="none" /><path d="M 117.65298651832404 88.62581576622439 l 1.9425087665499692 -1.2515985645561576 a23.310809225124938,23.310809225124938 0 0,0 0.21442881197473027,0.3391748853534432 l -1.9637651747706553 1.2179760314885082" fill="#ff0e01" stroke="none" /><line stroke="#e1ed5e" stroke-width="0.3" x1="172.23445277983987" x2="176.4835382374775" y1="55.19839476539836" y2="52.563006222186495" /><path d="M 173.08426987136738 54.67131705675599 a86.0,86.0 0 0,1 12.851231095245387,41.99856678651699" fill="none" id="id27" stroke="none" /><text fill="#e1ed5e" style="font-size:6.75px; font-family:Arial;" text-anchor="middle"><textPath startOffset="22.20632615414155" xlink:href="#id27">March</textPath></text><path d="M 117.84615892207809 88.93136811851018 l 11.22762327447559 -6.963651364522678 a34.211811560878566,34.211811560878566 0 0,0 0.3060885192522764,0.5031290450936116 l -11.345827592014091 6.769354546221985" fill="#ffa50f" stroke="none" /><path d="M 118.21658344932153 89.55222093294921 l 15.753120505005185 -9.034906194720707 a39.16013038479122,39.16013038479122 0 0,0 0.33032942207894195,0.5876191827310113 l -15.90630756837656 8.7624035020549" fill="#ffe515" stroke="none" /><path d="M 118.56541770881063 90.18545643968196 l 11.758690268550973 -6.216190751162731 a34.30067006908135,34.30067006908135 0 0,0 0.2714498953223076,0.5243547969963473 l -11.863949597033399 6.01286323190604" fill="#ffa70f" stroke="none" /><path d="M 118.73160827565052 90.50648371742162 l 28.467144776630104 -14.42766144147699 a52.91450683315505,52.91450683315505 0 0,0 0.40477074725022977,0.8159931270106696 l -28.711275536833742 13.935508725967372" fill="#7aff26" stroke="none" /><path d="M 119.47837535516314 92.15188598940014 l 1.346959521001674 -0.5427091169429602 a22.45218219822103,22.45218219822103 0 0,0 0.14134872884933725,0.3597170972786962 l -1.3561017997327116 0.5194430147684795" fill="#ff0200" stroke="none" /><path d="M 119.61058180528143 92.48833698450437 l 1.6056827209206719 -0.6150428186741459 a22.719446035520118,22.719446035520118 0 0,0 0.13674446336546114,0.36640717674958595 l -1.6160317727877584 0.5873125048952267" fill="#ff0600" stroke="none" /><path d="M 119.7369772167798 92.82701384747503 l 24.772494212913053 -9.003038104622274 a47.35775340658022,47.35775340658022 0 0,0 0.2718491082348568,0.7685540365745533 l -24.92379640195772 8.575286441621106" fill="#b7ff1f" stroke="none" /><path d="M 120.18372546131832 94.20196356495316 l 20.31544274431907 -5.835873929786227 a42.137044221509896,42.137044221509896 0 0,0 0.19425825380344486,0.6988502956994127 l -20.41288776868888 5.485312330667862" fill="#f5ff19" stroke="none" /><path d="M 120.28053869075195 94.5502522615342 l 12.735781717532106 -3.4223350114641953 a34.187589350875264,34.187589350875264 0 0,0 0.1478265960748177,0.5696361769399673 l -12.792804645477228 3.2026024089753777" fill="#ffa50f" stroke="none" /><path d="M 120.45610955862082 95.25157060432595 l 25.650303252843592 -5.954145563442518 a47.3322977795995,47.3322977795995 0 0,0 0.1773960719688321,0.7952318067621179 l -25.74899371181446 5.5117355871304365" fill="#b8ff1f" stroke="none" /><path d="M 120.6074358757038 95.95851677861258 l 12.894017228990377 -2.528745187007179 a34.13964354624252,34.13964354624252 0 0,0 0.10813207983113168,0.5776458942663668 l -12.935635032731367 2.3064212152782493" fill="#ffa40f" stroke="none" /><path d="M 120.67395015179393 96.31383870115 l 54.5934058689262 -9.733993668790172 a76.45440106171333,76.45440106171333 0 0,0 0.21985423612872154,1.297592146866444 l -54.752871966575135 8.79281573360789" fill="#44ffe4" stroke="none" /><path d="M 120.83666639777658 97.38593545837742 l 4.176769820417166 -0.523996769811359 a25.209510511629635,25.209510511629635 0 0,0 0.05031055649974822,0.43103012395076507 l -4.185170729920504 0.45202290753574126" fill="#ff2a04" stroke="none" /><path d="M 120.91429891909075 98.10471618934814 l 1.412389822617869 -0.12799279457049484 a22.41817741009244,22.41817741009244 0 0,0 0.03151944094567246,0.3846170153534997 l -1.4143837473830363 0.10366186200922642" fill="#ff0100" stroke="none" /><path d="M 120.94382443527127 98.46500227214037 l 5.592202087260589 -0.40985912215825554 a26.60720150206661,26.60720150206661 0 0,0 0.02954591495498196,0.457062227022074 l -5.598428593219987 0.3135378308831463" fill="#ff3e05" stroke="none" /><path d="M 120.96714384426684 98.82574320788733 l 1.461546813372753 -0.08185336473774703 a22.46383710193414,22.46383710193414 0 0,0 0.018298818954504886,0.3862591466732666 l -1.4627392405607542 0.05668311144148067" fill="#ff0200" stroke="none" /><line stroke="#e1ed5e" stroke-width="0.3" x1="184.98032266829074" x2="189.97916517819016" y1="98.17113171792111" y2="98.06355123074" /><path d="M 185.9800911702706 98.14961562048488 a86.0,86.0 0 0,1 -9.607161424134198,41.387399972396054" fill="none" id="id28" stroke="none" /><text fill="#e1ed5e" style="font-size:6.75px; font-family:Arial;" text-anchor="middle"><textPath startOffset="21.466115282336823" xlink:href="#id28">April</textPath></text><path d="M 120.99513854157772 99.54816195383933 l 2.3235265714767133 -0.05000480011976807 a23.3240645878274,23.3240645878274 0 0,0 0.005183487781777773,0.4014668411026449 l -2.3240430663762064 0.010001700956660418" fill="#ff0f01" stroke="none" /><path d="M 120.92983693683757 101.71520430193887 l 7.902437857713865 0.647606354997404 a28.92892918911894,28.92892918911894 0 0,0 -0.04494371400318595,0.49595013892587275 l -7.890119547433604 -0.7835378824718474" fill="#ff5e08" stroke="none" /><path d="M 120.8583938346157 102.4346265915055 l 13.198391789944615 1.5405383497736214 a34.287994741419816,34.287994741419816 0 0,0 -0.07347181020551903,0.5856426168968787 l -13.169918470492249 -1.767498720957895" fill="#ffa60f" stroke="none" /><path d="M 120.70491114924044 103.5080841355445 l 6.1897701305745345 1.0487480115814125 a27.27798746901813,27.27798746901813 0 0,0 -0.08242311193982045,0.4622725837122756 l -6.170800576295525 -1.1551393460269064" fill="#ff4706" stroke="none" /><path d="M 120.64145759157962 103.86396538481128 l 1.9901612552884627 0.37254705325481335 a23.024730384258653,23.024730384258653 0 0,0 -0.07627771600238749,0.3889384305608266 l -1.983453606310411 -0.4067492108835849" fill="#ff0a01" stroke="none" /><path d="M 120.23288151984713 105.62410040840565 l 4.102060829703574 1.1402430229727871 a25.257588190751484,25.257588190751484 0 0,0 -0.12004253694931909,0.4178838192219216 l -4.081825655868156 -1.2106843176992907" fill="#ff2a04" stroke="none" /><path d="M 119.41010516605496 108.01547362559984 l 1.2602925327830528 0.5204423917666048 a22.36352394600772,22.36352394600772 0 0,0 -0.14999430499416624,0.35454222940479674 l -1.2511472465965776 -0.542059146837565" fill="#ff0000" stroke="none" /><path d="M 118.81262510543309 109.33194174019688 l 2.7475033659736887 1.3628901441753911 a24.066960105891038,24.066960105891038 0 0,0 -0.18728831593835754,0.36953761539351637 l -2.7236363802490624 -1.4099819712716017" fill="#ff1902" stroke="none" /><line stroke="#e1ed5e" stroke-width="0.3" x1="174.80103733775053" x2="179.2010983576182" y1="140.37084112569926" y2="142.7455964860345" /><path d="M 175.68104954172406 140.8457921977663 a86.0,86.0 0 0,1 -30.038265399797805,32.042727171017184" fill="none" id="id29" stroke="none" /><text fill="#e1ed5e" style="font-size:6.75px; font-family:Arial;" text-anchor="middle"><textPath startOffset="22.206326154141568" xlink:href="#id29">May</textPath></text><path d="M 117.94076556474637 110.91462005526583 l 5.2595808873515 3.199770200898396 a27.156437317893406,27.156437317893406 0 0,0 -0.24639340808091426,0.3972646271955195 l -5.203722839602623 -3.2898311594591867" fill="#ff4506" stroke="none" /><path d="M 117.35343817320211 111.8261652097733 l 3.6911189547402494 2.5154544092070923 a25.466751618664524,25.466751618664524 0 0,0 -0.2499853845808907,0.36012259127977586 l -3.6472726629972225 -2.5786182626738876" fill="#ff2d04" stroke="none" /><path d="M 115.07121518719521 114.62390073753431 l 0.982608653258233 0.9534447773859233 a22.36915182101272,22.36915182101272 0 0,0 -0.2705169435477247,0.27403223559739276 l -0.9660510846549727 -0.9702175069639807" fill="#ff0100" stroke="none" /><path d="M 114.29624159901734 115.38237550388516 l 42.88872479705202 46.14712651165547 a84.0,84.0 0 0,0 -1.0676018021325442,0.9752289336536681 l -42.088023445452606 -46.878548211895726" fill="#4dd2ff" stroke="none" /><path d="M 114.0293411484842 115.62618273729858 l 1.0366951099165258 1.1546933714823626 a22.55179042820548,22.55179042820548 0 0,0 -0.2910873929149102,0.2568507800965693 l -1.016665364095028 -1.1723672933512206" fill="#ff0300" stroke="none" /><path d="M 113.20401910651253 116.32954008644616 l 0.8416762957468965 1.0409093398260465 a22.33862288959935,22.33862288959935 0 0,0 -0.30108475390065575,0.2391999378904623 l -0.8236340491288896 -1.0552431917216347" fill="#ff0000" stroke="none" /><path d="M 111.7513745106137 117.40417183066458 l 0.7447311422969894 1.102971295526094 a22.330853167355997,22.330853167355997 0 0,0 -0.32042147895462725,0.21235788420191393 l -0.7256349646023981 -1.1156272008193262" fill="#ff0000" stroke="none" /><line stroke="#e1ed5e" stroke-width="0.3" x1="143.8653032363475" x2="146.44561519142675" y1="172.8068346515853" y2="177.08958963109032" /><path d="M 144.38136562736335 173.6633856474863 a86.0,86.0 0 0,1 -40.68145358897372,12.25698825130547" fill="none" id="id30" stroke="none" /><text fill="#e1ed5e" style="font-size:6.75px; font-family:Arial;" text-anchor="middle"><textPath startOffset="21.466115282336833" xlink:href="#id30">June</textPath></text><path d="M 109.57404056367764 118.69057910512821 l 0.7489338842758285 1.4620794549037628 a22.64273500463957,22.64273500463957 0 0,0 -0.34842434933924044,0.17470720192953682 l -0.7236556272538276 -1.4747544977426017" fill="#ff0500" stroke="none" /><path d="M 104.83641907484287 120.43548508189849 l 0.7114297579380026 3.0060282163685454 a24.08906748681274,24.08906748681274 0 0,0 -0.40432909090557234,0.09202398470760566 l -0.6595805176395683 -3.017828934653836" fill="#ff1a02" stroke="none" /><path d="M 104.48393922423573 120.51570834832081 l 1.5012938872573955 6.868984166782353 a28.031132683958045,28.031132683958045 0 0,0 -0.47226924235192347,0.09896861152267937 l -1.382833183476094 -6.893808759031573" fill="#ff5207" stroke="none" /><line stroke="#e1ed5e" stroke-width="0.3" x1="102.19456741930631" x2="102.32365962044197" y1="184.97166512339345" y2="189.96999836594603" /><path d="M 102.22038585953345 185.97133177190398 a86.0,86.0 0 0,1 -42.740103519485714,-10.115201625700543" fill="none" id="id31" stroke="none" /><text fill="#e1ed5e" style="font-size:6.75px; font-family:Arial;" text-anchor="middle"><textPath startOffset="22.20632615414155" xlink:href="#id31">July</textPath></text><path d="M 99.81925306533755 120.99922214144158 l -0.014879776558342678 1.7287360028937193 a22.72880003917497,22.72880003917497 0 0,0 -0.3911954540250925,-0.0067347845076763365 l 0.04463492047610311 -1.7282237411068833" fill="#ff0600" stroke="none" /><path d="M 99.45781275523022 120.99299961872073 l -0.14973760588466767 5.797704637223125 a26.799637955173978,26.799637955173978 0 0,0 -0.46105541789010207,-0.01587968081828274 l 0.24951337544941277 -5.794268157978748" fill="#ff4006" stroke="none" /><path d="M 99.09653310690486 120.98055641714683 l -0.19745331683210607 4.585315173372418 a25.589564581906146,25.589564581906146 0 0,0 -0.4399113399129385,-0.022738391427118237 l 0.2763527251585335 -4.581236975183098" fill="#ff2f04" stroke="none" /><path d="M 98.73552117531835 120.96189622390904 l -0.42386629389048813 7.0266429867517015 a28.039415763993723,28.039415763993723 0 0,0 -0.4815265471665926,-0.033208889945080707 l 0.5447556018360108 -7.0183057522903365" fill="#ff5207" stroke="none" /><path d="M 93.42475214034765 119.94407469862007 l -1.9665142954242227 5.964840997783859 a27.280645397007458,27.280645397007458 0 0,0 -0.4447138392572574,-0.15087107961428164 l 2.068897867618706 -5.930106931271454" fill="#ff4706" stroke="none" /><path d="M 93.08242187328487 119.8279376855182 l -1.51002332719124 4.328198089964231 a25.58404506463797,25.58404506463797 0 0,0 -0.4145595283554229,-0.1486462975467148 l 1.5843024161763897 -4.301564251377559" fill="#ff2f04" stroke="none" /><path d="M 92.7421414339146 119.70592522655815 l -2.0992564339127604 5.699723953200167 a27.074020967860406,27.074020967860406 0 0,0 -0.43593013014257664,-0.16483147416145985 l 2.1970567848156204 -5.662744228932074" fill="#ff4406" stroke="none" /><path d="M 91.40352486487194 119.15986991738527 l -0.8173566202522364 1.8217288218694125 a22.996689195919053,22.996689195919053 0 0,0 -0.359768971059477,-0.16515228905968057 l 0.848593587079133 -1.8073894624756575" fill="#ff0a01" stroke="none" /><line stroke="#e1ed5e" stroke-width="0.3" x1="58.666819895761336" x2="56.23545636021788" y1="174.27360380694188" y2="178.64263932499728" /><path d="M 58.180547188652646 175.14741091055294 a86.0,86.0 0 0,1 -31.652253787137756,-30.449443065178592" fill="none" id="id32" stroke="none" /><text fill="#e1ed5e" style="font-size:6.75px; font-family:Arial;" text-anchor="middle"><textPath startOffset="22.20632615414155" xlink:href="#id32">August</textPath></text><path d="M 89.4739219176387 118.17145234162733 l -2.749396732443532 4.746357693806508 a26.485170348305275,26.485170348305275 0 0,0 -0.39252552160376275,-0.23191099698522025 l 2.830690125075677 -4.698328124527539" fill="#ff3c05" stroke="none" /><path d="M 87.07902340077011 116.55440617244103 l -1.0532806227720921 1.349467287478108 a22.71185923202835,22.71185923202835 0 0,0 -0.30611531343255816,-0.24319651862726924 l 1.0763534289220085 -1.331136854845708" fill="#ff0600" stroke="none" /><line stroke="#e1ed5e" stroke-width="0.3" x1="26.63291911575756" x2="22.317208475507996" y1="142.92168965132927" y2="145.44649492493687" /><path d="M 25.769776987707644 143.4266507060508 a86.0,86.0 0 0,1 -11.730757126820373,-40.83630448921669" fill="none" id="id33" stroke="none" /><text fill="#e1ed5e" style="font-size:6.75px; font-family:Arial;" text-anchor="middle"><textPath startOffset="21.46611528233685" xlink:href="#id33">September</textPath></text><line stroke="#e1ed5e" stroke-width="0.3" x1="15.007084014347285" x2="10.007500721073583" y1="101.09737516637583" y2="101.16192664675087" /><path d="M 14.007167355692545 101.11028546245083 a86.0,86.0 0 0,1 10.666146001902534,-42.60595125391555" fill="none" id="id34" stroke="none" /><text fill="#e1ed5e" style="font-size:6.75px; font-family:Arial;" text-anchor="middle"><textPath startOffset="22.20632615414155" xlink:href="#id34">October</textPath></text><line stroke="#e1ed5e" stroke-width="0.3" x1="26.266209847984257" x2="21.92892807433627" y1="57.711370442889674" y2="55.22380399835377" /><path d="M 25.39875349325466 57.213857153982495 a86.0,86.0 0 0,1 29.58750427330802,-30.492523968695096" fill="none" id="id35" stroke="none" /><text fill="#e1ed5e" style="font-size:6.75px; font-family:Arial;" text-anchor="middle"><textPath startOffset="21.46611528233685" xlink:href="#id35">November</textPath></text><line stroke="#e1ed5e" stroke-width="0.3" x1="56.762969772571076" x2="54.21961505331055" y1="26.818313649435495" y2="22.513508569990535" /><path d="M 56.25429882871897 25.957352633546506 a86.0,86.0 0 0,1 42.265352541879196,-11.944610805530505" fill="none" id="id36" stroke="none" /><text fill="#e1ed5e" style="font-size:6.75px; font-family:Arial;" text-anchor="middle"><textPath startOffset="22.20632615414155" xlink:href="#id36">December</textPath></text></svg>