<?xml version="1.0" encoding="utf-8" ?>
<svg baseProfile="full" height="200mm" version="1.1" viewBox="0,0,200,200" width="200mm" xmlns="http://www.w3.org/2000/svg" xmlns:ev="http://www.w3.org/2001/xml-events" xmlns:xlink="http://www.w3.org/1999/xlink"><defs /><rect fill="#1a1a1a" height="200" width="200" x="0" y="0" /><text alignment-baseline="middle" fill="#e1ed5e" style="dominant-baseline: central; font-size:9.0px; font-family:Arial;" text-anchor="middle" x="100.0" y="100.0">2025</text><line stroke="#e1ed5e" stroke-width="0.3" x1="100.0" x2="100.0" y1="15.0" y2="10.0" /><path d="M 100.0 14.0 a86.0,86.0 0 0,1 42.46469731375804,11.215312516191453" fill="none" id="id25" stroke="none" /><text fill="#e1ed5e" style="font-size:6.75px; font-family:Arial;" text-anchor="middle"><textPath startOffset="22.20632615414155" xlink:href="#id25">January</textPath></text><path d="M 108.09893153111575 80.62456947434976 l 5.07369393897278 -12.13802142236864 a34.15575669569216,34.15575669569216 0 0,0 0.5405006054733665,0.23141415168814994 l -5.2818783022364615 12.0488877427177" fill="#ff5407" stroke="none" /><line stroke="#e1ed5e" stroke-width="0.3" x1="143.23703022742887" x2="145.7803849466894" y1="26.81831364943548" y2="22.513508569990506" /><path d="M 143.74570117128098 25.957352633546492 a86.0,86.0 0 0,1 28.547481713284135,27.462654790039103" fill="none" id="id26" stroke="none" /><text fill="#e1ed5e" style="font-size:6.75px; font-family:Arial;" text-anchor="middle"><textPath startOffset="19.985693538727396" xlink:href="#id26">February</textPath></text><path d="M 112.19680574252982 82.90503203632743 l 7.628338251234714 -10.691832006981452 a34.13418502004459,34.13418502004459 0 0,0 0.4753667753123041,0.3453741786651557 l -7.811250342900807 10.55893859349962" fill="#ff5307" stroke="none" /><path d="M 113.89432698308785 84.25364557470405 l 9.550795792623886 -10.823857519499558 a35.43515125916002,35.43515125916002 0 0,0 0.4538888734089602,0.4075059120712908 l -9.735695653628834 10.657852598658971" fill="#ff6809" stroke="none" /><path d="M 114.94478906791727 85.2469230424477 l 18.695945765904465 -18.456113728010735 a47.271020574444904,47.271020574444904 0 0,0 0.5666573890387319,0.5839902499951476 l -19.010867418646306 18.131559282465467" fill="#ecff1a" stroke="none" /><path d="M 116.15771136456269 86.58626213691792 l 10.10499055946081 -8.388916685986045 a34.133345246783364,34.133345246783364 0 0,0 0.3714057552079305,0.45529954037410025 l -10.24789480674515 8.213732976003843" fill="#ff5307" stroke="none" /><path d="M 116.38621287248628 86.86637796730983 l 10.653077899944845 -8.538489015824146 a34.652613794275545,34.652613794275545 0 0,0 0.36904360342109704,0.4686478993801008 l -10.798475583959908 8.353848722491007" fill="#ff5c08" stroke="none" /><path d="M 116.60985879189232 87.15038557335679 l 20.91334937858771 -16.17885373087599 a47.44094344526978,47.44094344526978 0 0,0 0.4941178928546547,0.6502012271483587 l -21.188743211666477 15.816467727846598" fill="#eaff1a" stroke="none" /><path d="M 117.45458315368197 88.32363383020206 l 22.360549141836024 -14.958246624340767 a47.90247758105312,47.90247758105312 0 0,0 0.4525720346082147,0.6892982578908905 l -22.614717811802166 14.571130302472202" fill="#e3ff1b" stroke="none" /><line stroke="#e1ed5e" stroke-width="0.3" x1="172.23445277983987" x2="176.4835382374775" y1="55.19839476539836" y2="52.563006222186495" /><path d="M 173.08426987136738 54.67131705675599 a86.0,86.0 0 0,1 12.851231095245387,41.99856678651699" fill="none" id="id27" stroke="none" /><text fill="#e1ed5e" style="font-size:6.75px; font-family:Arial;" text-anchor="middle"><textPath startOffset="22.20632615414155" xlink:href="#id27">March</textPath></text><path d="M 117.84615892207809 88.93136811851018 l 11.22762327447559 -6.963651364522678 a34.211811560878566,34.211811560878566 0 0,0 0.3060885192522764,0.5031290450936116 l -11.345827592014091 6.769354546221985" fill="#ff5507" stroke="none" /><path d="M 118.21658344932153 89.55222093294921 l 14.306993986493394 -8.205507509152296 a37.49304187869275,37.49304187869275 0 0,0 0.3162669463577725,0.562603607556259 l -14.4461185741436 7.958020391661243" fill="#ff870c" stroke="none" /><path d="M 118.56541770881063 90.18545643968196 l 11.758690268550973 -6.216190751162731 a34.30067006908135,34.30067006908135 0 0,0 0.2714498953223076,0.5243547969963473 l -11.863949597033399 6.01286323190604" fill="#ff5608" stroke="none" /><path d="M 118.73160827565052 90.50648371742162 l 28.467144776630104 -14.42766144147699 a52.91450683315505,52.91450683315505 0 0,0 0.40477074725022977,0.8159931270106696 l -28.711275536833742 13.935508725967372" fill="#a3ff22" stroke="none" /><path d="M 119.7369772167798 92.82701384747503 l 24.772494212913053 -9.003038104622274 a47.35775340658022,47.35775340658022 0 0,0 0.2718491082348568,0.7685540365745533 l -24.92379640195772 8.575286441621106" fill="#ebff1a" stroke="none" /><path d="M 120.18372546131832 94.20196356495316 l 19.00728144749354 -5.460087661961261 a40.7759779859438,40.7759779859438 0 0,0 0.18798352914924307,0.6762767725972322 l -19.098451747209147 5.132099585945077" fill="#ffb711" stroke="none" /><path d="M 120.28053869075195 94.5502522615342 l 12.735781717532106 -3.4223350114641953 a34.187589350875264,34.187589350875264 0 0,0 0.1478265960748177,0.5696361769399673 l -12.792804645477228 3.2026024089753777" fill="#ff5407" stroke="none" /><path d="M 120.45610955862082 95.25157060432595 l 25.650303252843592 -5.954145563442518 a47.3322977795995,47.3322977795995 0 0,0 0.1773960719688321,0.7952318067621179 l -25.74899371181446 5.5117355871304365" fill="#ebff1a" stroke="none" /><path d="M 120.6074358757038 95.95851677861258 l 12.894017228990377 -2.528745187007179 a34.13964354624252,34.13964354624252 0 0,0 0.10813207983113168,0.5776458942663668 l -12.935635032731367 2.3064212152782493" fill="#ff5407" stroke="none" /><path d="M 120.67395015179393 96.31383870115 l 54.5934058689262 -9.733993668790172 a76.45440106171333,76.45440106171333 0 0,0 0.21985423612872154,1.297592146866444 l -54.752871966575135 8.79281573360789" fill="#42ffdb" stroke="none" /><line stroke="#e1ed5e" stroke-width="0.3" x1="184.98032266829074" x2="189.97916517819016" y1="98.17113171792111" y2="98.06355123074" /><path d="M 185.9800911702706 98.14961562048488 a86.0,86.0 0 0,1 -9.607161424134198,41.387399972396054" fill="none" id="id28" stroke="none" /><text fill="#e1ed5e" style="font-size:6.75px; font-family:Arial;" text-anchor="middle"><textPath startOffset="21.466115282336823" xlink:href="#id28">April</textPath></text><path d="M 120.92983693683757 101.71520430193887 l 7.902437857713865 0.647606354997404 a28.92892918911894,28.92892918911894 0 0,0 -0.04494371400318595,0.49595013892587275 l -7.890119547433604 -0.7835378824718474" fill="#ff0000" stroke="none" /><path d="M 120.8583938346157 102.4346265915055 l 13.198391789944615 1.5405383497736214 a34.287994741419816,34.287994741419816 0 0,0 -0.07347181020551903,0.5856426168968787 l -13.169918470492249 -1.767498720957895" fill="#ff5607" stroke="none" /><line stroke="#e1ed5e" stroke-width="0.3" x1="174.80103733775053" x2="179.2010983576182" y1="140.37084112569926" y2="142.7455964860345" /><path d="M 175.68104954172406 140.8457921977663 a86.0,86.0 0 0,1 -30.038265399797805,32.042727171017184" fill="none" id="id29" stroke="none" /><text fill="#e1ed5e" style="font-size:6.75px; font-family:Arial;" text-anchor="middle"><textPath startOffset="22.206326154141568" xlink:href="#id29">May</textPath></text><path d="M 114.29624159901734 115.38237550388516 l 42.88872479705202 46.14712651165547 a84.0,84.0 0 0,0 -1.0676018021325442,0.9752289336536681 l -42.088023445452606 -46.878548211895726" fill="#4dd2ff" stroke="none" /><line stroke="#e1ed5e" stroke-width="0.3" x1="143.8653032363475" x2="146.44561519142675" y1="172.8068346515853" y2="177.08958963109032" /><path d="M 144.38136562736335 173.6633856474863 a86.0,86.0 0 0,1 -40.68145358897372,12.25698825130547" fill="none" id="id30" stroke="none" /><text fill="#e1ed5e" style="font-size:6.75px; font-family:Arial;" text-anchor="middle"><textPath startOffset="21.466115282336833" xlink:href="#id30">June</textPath></text><line stroke="#e1ed5e" stroke-width="0.3" x1="102.19456741930631" x2="102.32365962044197" y1="184.97166512339345" y2="189.96999836594603" /><path d="M 102.22038585953345 185.97133177190398 a86.0,86.0 0 0,1 -42.740103519485714,-10.115201625700543" fill="none" id="id31" stroke="none" /><text fill="#e1ed5e" style="font-size:6.75px; font-family:Arial;" text-anchor="middle"><textPath startOffset="22.20632615414155" xlink:href="#id31">July</textPath></text><line stroke="#e1ed5e" stroke-width="0.3" x1="58.666819895761336" x2="56.23545636021788" y1="174.27360380694188" y2="178.64263932499728" /><path d="M 58.180547188652646 175.14741091055294 a86.0,86.0 0 0,1 -31.652253787137756,-30.449443065178592" fill="none" id="id32" stroke="none" /><text fill="#e1ed5e" style="font-size:6.75px; font-family:Arial;" text-anchor="middle"><textPath startOffset="22.20632615414155" xlink:href="#id32">August</textPath></text><line stroke="#e1ed5e" stroke-width="0.3" x1="26.63291911575756" x2="22.317208475507996" y1="142.92168965132927" y2="145.44649492493687" /><path d="M 25.769776987707644 143.4266507060508 a86.0,86.0 0 0,1 -11.730757126820373,-40.83630448921669" fill="none" id="id33" stroke="none" /><text fill="#e1ed5e" style="font-size:6.75px; font-family:Arial;" text-anchor="middle"><textPath startOffset="21.46611528233685" xlink:href="#id33">September</textPath></text><line stroke="#e1ed5e" stroke-width="0.3" x1="15.007084014347285" x2="10.007500721073583" y1="101.09737516637583" y2="101.16192664675087" /><path d="M 14.007167355692545 101.11028546245083 a86.0,86.0 0 0,1 10.666146001902534,-42.60595125391555" fill="none" id="id34" stroke="none" /><text fill="#e1ed5e" style="font-size:6.75px; font-family:Arial;" text-anchor="middle"><textPath startOffset="22.20632615414155" xlink:href="#id34">October</textPath></text><line stroke="#e1ed5e" stroke-width="0.3" x1="26.266209847984257" x2="21.92892807433627" y1="57.711370442889674" y2="55.22380399835377" /><path d="M 25.39875349325466 57.213857153982495 a86.0,86.0 0 0,1 29.58750427330802,-30.492523968695096" fill="none" id="id35" stroke="none" /><text fill="#e1ed5e" style="font-size:6.75px; font-family:Arial;" text-anchor="middle"><textPath startOffset="21.46611528233685" xlink:href="#id35">November</textPath></text><line stroke="#e1ed5e" stroke-width="0.3" x1="56.762969772571076" x2="54.21961505331055" y1="26.818313649435495" y2="22.513508569990535" /><path d="M 56.25429882871897 25.957352633546506 a86.0,86.0 0 0,1 42.265352541879196,-11.944610805530505" fill="none" id="id36" stroke="none" /><text fill="#e1ed5e" style="font-size:6.75px; font-family:Arial;" text-anchor="middle"><textPath startOffset="22.20632615414155" xlink:href="#id36">December</textPath></text></svg>