<?xml version="1.0" encoding="utf-8" ?>
<svg baseProfile="full" height="200mm" version="1.1" viewBox="0,0,200,200" width="200mm" xmlns="http://www.w3.org/2000/svg" xmlns:ev="http://www.w3.org/2001/xml-events" xmlns:xlink="http://www.w3.org/1999/xlink"><defs /><rect fill="#1a1a1a" height="200" width="200" x="0" y="0" /><text alignment-baseline="middle" fill="#e1ed5e" style="dominant-baseline: central; font-size:9.0px; font-family:Arial;" text-anchor="middle" x="100.0" y="100.0">2023</text><line stroke="#e1ed5e" stroke-width="0.3" x1="100.0" x2="100.0" y1="15.0" y2="10.0" /><path d="M 100.0 14.0 a86.0,86.0 0 0,1 42.46469731375804,11.215312516191453" fill="none" id="id1" stroke="none" /><text fill="#e1ed5e" style="font-size:6.75px; font-family:Arial;" text-anchor="middle"><textPath startOffset="22.20632615414155" xlink:href="#id1">January</textPath></text><line stroke="#e1ed5e" stroke-width="0.3" x1="143.23703022742887" x2="145.7803849466894" y1="26.81831364943548" y2="22.513508569990506" /><path d="M 143.74570117128098 25.957352633546492 a86.0,86.0 0 0,1 28.547481713284135,27.462654790039103" fill="none" id="id2" stroke="none" /><text fill="#e1ed5e" style="font-size:6.75px; font-family:Arial;" text-anchor="middle"><textPath startOffset="19.985693538727396" xlink:href="#id2">February</textPath></text><line stroke="#e1ed5e" stroke-width="0.3" x1="172.23445277983987" x2="176.4835382374775" y1="55.19839476539836" y2="52.563006222186495" /><path d="M 173.08426987136738 54.67131705675599 a86.0,86.0 0 0,1 12.851231095245387,41.99856678651699" fill="none" id="id3" stroke="none" /><text fill="#e1ed5e" style="font-size:6.75px; font-family:Arial;" text-anchor="middle"><textPath startOffset="22.20632615414155" xlink:href="#id3">March</textPath></text><line stroke="#e1ed5e" stroke-width="0.3" x1="184.98032266829074" x2="189.97916517819016" y1="98.17113171792111" y2="98.06355123074" /><path d="M 185.9800911702706 98.14961562048488 a86.0,86.0 0 0,1 -9.607161424134198,41.387399972396054" fill="none" id="id4" stroke="none" /><text fill="#e1ed5e" style="font-size:6.75px; font-family:Arial;" text-anchor="middle"><textPath startOffset="21.466115282336823" xlink:href="#id4">April</textPath></text><line stroke="#e1ed5e" stroke-width="0.3" x1="174.80103733775053" x2="179.2010983576182" y1="140.37084112569926" y2="142.7455964860345" /><path d="M 175.68104954172406 140.8457921977663 a86.0,86.0 0 0,1 -30.038265399797805,32.042727171017184" fill="none" id="id5" stroke="none" /><text fill="#e1ed5e" style="font-size:6.75px; font-family:Arial;" text-anchor="middle"><textPath startOffset="22.206326154141568" xlink:href="#id5">May</textPath></text><line stroke="#e1ed5e" stroke-width="0.3" x1="143.8653032363475" x2="146.44561519142675" y1="172.8068346515853" y2="177.08958963109032" /><path d="M 144.38136562736335 173.6633856474863 a86.0,86.0 0 0,1 -40.68145358897372,12.25698825130547" fill="none" id="id6" stroke="none" /><text fill="#e1ed5e" style="font-size:6.75px; font-family:Arial;" text-anchor="middle"><textPath startOffset="21.466115282336833" xlink:href="#id6">June</textPath></text><line stroke="#e1ed5e" stroke-width="0.3" x1="102.19456741930631" x2="102.32365962044197" y1="184.97166512339345" y2="189.96999836594603" /><path d="M 102.22038585953345 185.97133177190398 a86.0,86.0 0 0,1 -42.740103519485714,-10.115201625700543" fill="none" id="id7" stroke="none" /><text fill="#e1ed5e" style="font-size:6.75px; font-family:Arial;" text-anchor="middle"><textPath startOffset="22.20632615414155" xlink:href="#id7">July</textPath></text><line stroke="#e1ed5e" stroke-width="0.3" x1="58.666819895761336" x2="56.23545636021788" y1="174.27360380694188" y2="178.64263932499728" /><path d="M 58.180547188652646 175.14741091055294 a86.0,86.0 0 0,1 -31.652253787137756,-30.449443065178592" fill="none" id="id8" stroke="none" /><text fill="#e1ed5e" style="font-size:6.75px; font-family:Arial;" text-anchor="middle"><textPath startOffset="22.20632615414155" xlink:href="#id8">August</textPath></text><line stroke="#e1ed5e" stroke-width="0.3" x1="26.63291911575756" x2="22.317208475507996" y1="142.92168965132927" y2="145.44649492493687" /><path d="M 25.769776987707644 143.4266507060508 a86.0,86.0 0 0,1 -11.730757126820373,-40.83630448921669" fill="none" id="id9" stroke="none" /><text fill="#e1ed5e" style="font-size:6.75px; font-family:Arial;" text-anchor="middle"><textPath startOffset="21.46611528233685" xlink:href="#id9">September</textPath></text><line stroke="#e1ed5e" stroke-width="0.3" x1="15.007084014347285" x2="10.007500721073583" y1="101.09737516637583" y2="101.16192664675087" /><path d="M 14.007167355692545 101.11028546245083 a86.0,86.0 0 0,1 10.666146001902534,-42.60595125391555" fill="none" id="id10" stroke="none" /><text fill="#e1ed5e" style="font-size:6.75px; font-family:Arial;" text-anchor="middle"><textPath startOffset="22.20632615414155" xlink:href="#id10">October</textPath></text><line stroke="#e1ed5e" stroke-width="0.3" x1="26.266209847984257" x2="21.92892807433627" y1="57.711370442889674" y2="55.22380399835377" /><path d="M 25.39875349325466 57.213857153982495 a86.0,86.0 0 0,1 29.58750427330802,-30.492523968695096" fill="none" id="id11" stroke="none" /><text fill="#e1ed5e" style="font-size:6.75px; font-family:Arial;" text-anchor="middle"><textPath startOffset="21.46611528233685" xlink:href="#id11">November</textPath></text><path d="M 82.34701348167596 88.62581576622439 l -48.15916711879977 -31.02994718688663 a78.29016494999345,78.29016494999345 0 0,0 0.7396681973553392,-1.1265654102903249 l 47.61790228608651 31.854330661154624" fill="#46fff5" stroke="none" /><path d="M 84.07557802195018 86.31012108654704 l -4.145524300591007 -3.5638169966918807 a26.466823877966117,26.466823877966117 0 0,0 0.2999675918194356,-0.3429148120910065 l 4.083564845193728 3.634647364985828" fill="#ff2903" stroke="none" /><path d="M 84.80347519578584 85.50635884689758 l -23.415981610008764 -22.33292407807592 a53.35842537326827,53.35842537326827 0 0,0 0.6396296428086619,-0.6591945719472642 l 23.028087703496983 22.732682845573304" fill="#7dff26" stroke="none" /><path d="M 87.22198572758235 83.33499621200491 l -6.94278247853504 -9.054732123266065 a32.410100892120084,32.410100892120084 0 0,0 0.4456448233180148,-0.33565044173702996 l 6.785891501458636 9.172899154508949" fill="#ff7d0b" stroke="none" /><line stroke="#e1ed5e" stroke-width="0.3" x1="56.762969772571076" x2="54.21961505331055" y1="26.818313649435495" y2="22.513508569990535" /><path d="M 56.25429882871897 25.957352633546506 a86.0,86.0 0 0,1 42.265352541879196,-11.944610805530505" fill="none" id="id12" stroke="none" /><text fill="#e1ed5e" style="font-size:6.75px; font-family:Arial;" text-anchor="middle"><textPath startOffset="22.20632615414155" xlink:href="#id12">December</textPath></text><path d="M 89.63071344664047 81.73862282372117 l -6.651763212889132 -11.714437275196119 a34.4712283966552,34.4712283966552 0 0,0 0.5185062224094795,-0.28854815139610046 l 6.449132901407608 11.827200824152404" fill="#ff9a0e" stroke="none" /><path d="M 91.56875222667455 80.76684994638697 l -1.5116808362009468 -3.448408247212087 a24.765195664235463,24.765195664235463 0 0,0 0.3918988933679276,-0.16779065377149444 l 1.4520981850427108 3.4739184289463676" fill="#ff0f01" stroke="none" /><path d="M 91.90106846888425 80.62456947434976 l -7.385653230123976 -17.669023438095053 a40.15051599543973,40.15051599543973 0 0,0 0.6399535880011152,-0.26105313682330755 l 7.08041577253448 17.793537461101938" fill="#ffe415" stroke="none" /><path d="M 92.23578459929587 80.48803036053334 l -23.29264620211241 -58.53590891839998 a84.0,84.0 0 0,0 1.34806734000129,-0.5230291844377941 l 22.281595697111445 58.92818080672833" fill="#4dd2ff" stroke="none" /><path d="M 92.57280143429618 80.3572730644239 l -0.9667379566350942 -2.556733811874398 a23.733398994215953,23.733398994215953 0 0,0 0.38337087658712393,-0.14119872924695506 l 0.922584754275402 2.572995808927675" fill="#ff0000" stroke="none" /><path d="M 93.94186890950719 79.89281104454417 l -0.8077688889182822 -2.6810185252193475 a23.80006266188341,23.80006266188341 0 0,0 0.39327878868900434,-0.1148088628327843 l 0.7614998825058565 2.6945257169708308" fill="#ff0100" stroke="none" /><path d="M 94.98787191387505 79.60689891045804 l -0.7622959116899456 -3.1015922418807214 a24.19389566076819,24.19389566076819 0 0,0 0.4052780673122943,-0.09591622452362836 l 0.7087941574151172 3.1142543785452204" fill="#ff0701" stroke="none" /><path d="M 96.04723909329186 79.375362276772 l -1.4152147015286234 -7.384279294525335 a28.518670983024748,28.518670983024748 0 0,0 0.4829227876773784,-0.0882510526832662 l 1.2878967927483518 7.407545828559337" fill="#ff4606" stroke="none" /><path d="M 96.40284397218896 79.31037775812273 l -0.5242413915407569 -3.0152587963037663 a24.060492549458637,24.060492549458637 0 0,0 0.40865118944308754,-0.0674309477166144 l 0.4722609959587837 3.023836006960008" fill="#ff0500" stroke="none" /><path d="M 96.75951476605007 79.25152402106235 l -0.5159887009757604 -3.303819766075274 a24.34387042007377,24.34387042007377 0 0,0 0.4145772951735162,-0.061097916571834165 l 0.4590424253735954 3.3122121668080773" fill="#ff0901" stroke="none" /><path d="M 97.47563105711357 79.15227682838746 l -2.7562125669297397 -22.762424153328695 a43.92868642225592,43.92868642225592 0 0,0 0.7514593730454708,-0.08443521632016315 l 2.363986490374551 22.806495323119456" fill="#eaff1a" stroke="none" /><path d="M 98.19473922651362 79.07773832637324 l -2.312499124995053 -26.800954479136603 a47.90053555593002,47.90053555593002 0 0,0 0.8220868071026437,-0.06380975824806603 l 1.850822128530075 26.83678949957313" fill="#bbff1f" stroke="none" /><path d="M 98.55514903715128 79.0497635885617 l -0.21475071136199927 -3.1138700725837536 a24.121266521296,24.121266521296 0 0,0 0.41446992337799254,-0.02500195764642302 l 0.16111873914438374 3.117105299610483" fill="#ff0600" stroke="none" /></svg>